:SAMPLES-PER-SECOND 30
:FULLY-SPECIFIED
:DEGREES
219
root  41.9039 36.5153 -15.2763 61.6545 86.8383 21.7162
RightUpLeg  -72.1235 -10.1925 14.4746
RightLeg  40.9696 -2.35195 -2.48174
RightFoot  -5.55014 0.43417 -9.29337
RightToes  0.000482159 0.542163 -0.142577
Spine  71.6007 -5.30008 5.91983
Spine1  1.11602 -0.0149241 -7.80772
HEad  -32.2528 -4.23826 -0.646253
LeftShoulder1  5.57874 -22.5798 -14.3983
LeftArm  -99.4194 -69.8525 52.1669
LeftForeArm  2.36014 -6.27687 -0.941691
LeftHand  -0.25398 0.0180481 5.50724
RightShoulder  2.7172 17.4771 5.12469
RightArm  -72.9078 50.8434 -29.928
RightForeArm  -25.2012 6.17585 1.54028
RightHand  -2.34257 7.47769 -21.3181
LeftUpLeg  -73.1169 13.952 -21.1002
LeftLeg  35.8334 -1.49555 -0.794443
LeftFoot  -2.92351 -0.693633 9.63962
LeftToes  1.06248e-005 4.65854e-005 -8.185e-006
220
root  41.6073 36.5874 -15.3426 56.9492 86.6817 18.0115
RightUpLeg  -71.0585 -10.4453 14.591
RightLeg  39.9601 -2.01378 -2.09671
RightFoot  -4.96456 0.508254 -9.69076
RightToes  0.000482159 0.542163 -0.142577
Spine  70.7403 -4.96928 6.32368
Spine1  1.007 0.479472 -7.38413
HEad  -31.7522 -4.97688 -0.797273
LeftShoulder1  5.99284 -23.6755 -15.1022
LeftArm  -99.5073 -70.487 54.2695
LeftForeArm  8.0212 -3.48497 -1.35539
LeftHand  -0.25398 0.0180481 5.50724
RightShoulder  2.7439 17.4843 5.26243
RightArm  -72.234 52.9611 -32.515
RightForeArm  -23.1223 2.28591 1.75183
RightHand  -2.9549 8.2876 -25.0839
LeftUpLeg  -72.265 14.7575 -21.568
LeftLeg  34.8837 -1.93547 -1.08911
LeftFoot  -2.30419 -0.793347 10.1895
LeftToes  1.06248e-005 4.65854e-005 -8.185e-006
221
root  41.2907 36.7278 -15.4178 54.4362 86.6005 16.9946
RightUpLeg  -69.4251 -11.1368 14.7275
RightLeg  38.6557 -1.5345 -1.59776
RightFoot  -4.09023 0.612173 -10.0608
RightToes  0.000482159 0.542163 -0.142577
Spine  69.7719 -4.80308 6.88825
Spine1  1.30997 0.898407 -6.93267
HEad  -31.8813 -5.61565 -0.809302
LeftShoulder1  6.34373 -24.8442 -15.4399
LeftArm  -97.634 -71.3789 53.5204
LeftForeArm  14.1113 -1.18955 -1.68616
LeftHand  -0.25398 0.0180481 5.50724
RightShoulder  2.73013 17.4031 5.24593
RightArm  -71.3231 55.2123 -34.1669
RightForeArm  -16.8285 -0.821193 2.00262
RightHand  -4.02827 10.6687 -28.9453
LeftUpLeg  -70.5596 15.3968 -21.6546
LeftLeg  33.4268 -2.16467 -1.18175
LeftFoot  -1.5222 -0.885991 10.39
LeftToes  1.06248e-005 4.65854e-005 -8.185e-006
222
root  40.9691 36.9216 -15.5084 51.3109 86.4524 15.5568
RightUpLeg  -67.4246 -11.8847 14.7821
RightLeg  37.0232 -0.961031 -1.05127
RightFoot  -3.04352 0.732105 -10.3373
RightToes  0.000482159 0.542163 -0.142577
Spine  68.4184 -4.7541 7.45222
Spine1  2.07316 1.25698 -6.67197
HEad  -32.0769 -6.06349 -0.792917
LeftShoulder1  6.52402 -25.5532 -15.5052
LeftArm  -90.9984 -72.7621 46.7384
LeftForeArm  16.0438 0.983071 -2.02199
LeftHand  -0.25398 0.0180481 5.50724
RightShoulder  2.81288 17.2335 5.81722
RightArm  -70.2909 57.7231 -33.3076
RightForeArm  -9.924 -2.10058 2.16993
RightHand  -5.38808 13.8128 -32.1926
LeftUpLeg  -68.4874 16.1022 -21.6972
LeftLeg  31.6765 -2.36635 -1.22341
LeftFoot  -0.491874 -1.03365 10.8725
LeftToes  1.06248e-005 4.65854e-005 -8.185e-006
223
root  40.6489 37.1529 -15.6126 46.6332 86.3508 12.8697
RightUpLeg  -64.8833 -12.7216 14.8159
RightLeg  35.0586 -0.316562 -0.502245
RightFoot  -2.0078 0.85478 -10.5951
RightToes  0.000482159 0.542163 -0.142577
Spine  66.7801 -4.90246 8.03823
Spine1  3.14492 1.4528 -6.57858
HEad  -31.9536 -6.15875 -0.987831
LeftShoulder1  6.72571 -25.7755 -16.0628
LeftArm  -76.4732 -73.7437 31.2666
LeftForeArm  14.318 2.93482 -2.47339
LeftHand  -0.25398 0.0180481 5.50724
RightShoulder  3.03281 16.9412 7.24452
RightArm  -68.0654 60.5409 -28.5794
RightForeArm  -5.47795 -1.58042 2.33868
RightHand  -6.62391 16.544 -34.4722
LeftUpLeg  -66.0313 16.9635 -21.5032
LeftLeg  29.7691 -2.60821 -1.26747
LeftFoot  0.890315 -1.22526 11.3487
LeftToes  1.06248e-005 4.65854e-005 -8.185e-006
224
root  40.3428 37.4112 -15.7232 42.6515 86.3339 11.3483
RightUpLeg  -61.7133 -13.8301 14.6984
RightLeg  32.8971 0.355172 -0.00570299
RightFoot  -0.93481 0.986235 -10.854
RightToes  0.000482159 0.542163 -0.142577
Spine  65.0927 -5.23303 8.59568
Spine1  4.34294 1.39092 -6.44557
HEad  -31.7159 -5.94123 -1.42413
LeftShoulder1  7.21847 -25.9394 -17.7261
LeftArm  -55.9804 -72.1582 9.89776
LeftForeArm  13.9509 4.0917 -2.98661
LeftHand  -0.25398 0.0180481 5.50724
RightShoulder  3.3089 16.6604 9.00664
RightArm  -61.9858 62.9983 -19.1128
RightForeArm  -3.6735 -0.502174 2.7888
RightHand  -7.29914 17.9549 -35.5917
LeftUpLeg  -62.9481 17.796 -20.8267
LeftLeg  27.8284 -2.82538 -1.27712
LeftFoot  2.39807 -1.33044 10.8953
LeftToes  1.06248e-005 4.65854e-005 -8.185e-006
225
root  40.0574 37.6923 -15.8423 40.733 86.1911 12.0814
RightUpLeg  -58.2338 -14.9917 14.2147
RightLeg  30.569 1.03266 0.414921
RightFoot  0.341429 1.12584 -10.9384
RightToes  0.000482159 0.542163 -0.142577
Spine  63.3789 -5.46294 8.93024
Spine1  5.41785 1.2509 -6.17527
HEad  -31.5302 -5.70143 -1.87622
LeftShoulder1  8.06806 -26.2943 -20.4534
LeftArm  -38.4926 -66.83 -7.95499
LeftForeArm  17.2517 4.04952 -3.50859
LeftHand  -0.25398 0.0180481 5.50724
RightShoulder  3.62103 16.5278 10.8615
RightArm  -51.0018 63.8229 -5.78774
RightForeArm  -3.13876 -0.0293802 3.6209
RightHand  -7.03244 17.393 -35.1515
LeftUpLeg  -59.6108 18.6515 -20.138
LeftLeg  26.0196 -3.19273 -1.35873
LeftFoot  3.95177 -1.36845 9.98022
LeftToes  1.06248e-005 4.65854e-005 -8.185e-006
226
root  39.7865 37.9981 -15.978 40.7395 85.8996 14.6309
RightUpLeg  -54.7286 -16.1738 13.4776
RightLeg  27.9688 1.87243 0.842314
RightFoot  1.77141 1.24186 -10.6613
RightToes  0.000482159 0.542163 -0.142577
Spine  61.6078 -5.4228 9.06581
Spine1  6.07865 1.19381 -5.70309
HEad  -31.0974 -5.66831 -2.09072
LeftShoulder1  9.21956 -26.6198 -24.1713
LeftArm  -27.4474 -58.7193 -18.829
LeftForeArm  21.2919 3.03169 -4.10942
LeftHand  -0.25398 0.0180481 5.50724
RightShoulder  4.0597 16.4761 13.3404
RightArm  -38.0459 61.9959 7.76284
RightForeArm  -3.17364 0.167559 4.80518
RightHand  -6.09221 15.4836 -33.3786
LeftUpLeg  -56.4478 19.8008 -19.9921
LeftLeg  24.1569 -4.03724 -1.64329
LeftFoot  6.16982 -1.5452 9.74351
LeftToes  1.06248e-005 4.65854e-005 -8.185e-006
227
root  39.5217 38.3172 -16.1238 42.8271 85.6303 19.1696
RightUpLeg  -51.2252 -17.7425 12.7299
RightLeg  25.1103 3.11262 1.35646
RightFoot  3.21647 1.32151 -10.1384
RightToes  0.000482159 0.542163 -0.142577
Spine  59.7479 -5.23041 9.12895
Spine1  6.46237 1.10554 -5.06521
HEad  -30.2827 -5.82324 -1.90317
LeftShoulder1  10.4308 -26.4695 -28.5154
LeftArm  -21.069 -49.5483 -24.4403
LeftForeArm  23.0053 1.7457 -4.77677
LeftHand  -0.25398 0.0180481 5.50724
RightShoulder  4.64631 16.3627 16.7012
RightArm  -27.1622 57.6329 17.8083
RightForeArm  -4.32996 1.13146 6.19979
RightHand  -5.2748 13.733 -31.6862
LeftUpLeg  -53.2055 20.9582 -19.8584
LeftLeg  21.9345 -5.38704 -2.05222
LeftFoot  9.11529 -1.61831 8.70577
LeftToes  1.06248e-005 4.65854e-005 -8.185e-006
228
root  39.2607 38.6231 -16.2708 47.4328 85.4124 26.2826
RightUpLeg  -47.6835 -19.8384 11.9229
RightLeg  22.2367 4.76424 1.91771
RightFoot  4.64071 1.39834 -9.70069
RightToes  0.000482159 0.542163 -0.142577
Spine  58.1105 -5.08509 9.06157
Spine1  6.50548 0.796954 -4.41536
HEad  -29.122 -6.03279 -1.39739
LeftShoulder1  11.3719 -25.589 -32.8821
LeftArm  -17.1464 -40.566 -26.5321
LeftForeArm  22.9676 0.692972 -5.49321
LeftHand  -0.25398 0.0180481 5.50724
RightShoulder  5.31933 16.2423 20.5219
RightArm  -19.2094 51.5522 23.7847
RightForeArm  -6.2039 2.9216 7.58903
RightHand  -4.94244 12.9176 -31.0473
LeftUpLeg  -49.2939 20.9909 -18.3091
LeftLeg  19.9497 -7.22014 -2.5699
LeftFoot  10.6825 -0.7368 3.42228
LeftToes  1.06248e-005 4.65854e-005 -8.185e-006
229
root  39.0029 38.8791 -16.4448 52.1685 85.14 33.5795
RightUpLeg  -43.9467 -21.3032 10.1552
RightLeg  19.6638 5.54989 2.5433
RightFoot  5.92881 1.46479 -9.34875
RightToes  0.000482159 0.542163 -0.142577
Spine  57.0517 -4.94475 8.85366
Spine1  5.70169 0.359466 -3.64486
HEad  -27.3761 -6.31829 -0.961733
LeftShoulder1  12.0409 -24.1464 -37.2708
LeftArm  -13.6891 -31.9605 -26.5027
LeftForeArm  23.0056 -0.0793313 -6.40689
LeftHand  -0.25398 0.0180481 5.50724
RightShoulder  6.00312 16.2145 24.2527
RightArm  -12.8081 44.3042 26.9385
RightForeArm  -7.15611 4.82956 8.87132
RightHand  -4.796 12.5225 -30.8016
LeftUpLeg  -44.8123 19.0533 -14.7609
LeftLeg  19.6358 -10.0287 -3.63845
LeftFoot  8.04322 0.927335 -5.96576
LeftToes  1.06248e-005 4.65854e-005 -8.185e-006
